# xmcd
#
# Track frame offsets: 
#        182
#        16780
#        30245
#        45747
#        56760
#        70245
#        85057
#        101410
#        118050
#        130360
#        143530
#        156670
#        172312
#        188620
#        199952
#        213180
#
# Disc length: 3015 seconds
#
# Revision: 2
# Processed by: cddbd v1.5.2PL0 Copyright (c) Steve Scherf et al.
# Submitted via: ExactAudioCopy v1.0b4
#
DISCID=df0bc510
DTITLE=The Oak Ridge Boys - The Country Collection
DYEAR=1985
DGENRE=Country
TTITLE0=I'm Settin' Fancy Free
TTITLE1=Leaving Louisiana In The Broad Daylight
TTITLE2=Sail Away
TTITLE3=Trying To Love Two Women
TTITLE4=Back In Your Arms Again
TTITLE5=Dream On
TTITLE6=I'll Be True To You
TTITLE7=Elvira
TTITLE8=So Fine
TTITLE9=Come On In
TTITLE10=Y'all Come Back Saloon
TTITLE11=Heart Of Mine
TTITLE12=I Wish You Were Here (Oh My Darlin')
TTITLE13=Cryin' Again
TTITLE14=You're The One
TTITLE15=Bobbie Sue
EXTD=
EXTT0=
EXTT1=
EXTT2=
EXTT3=
EXTT4=
EXTT5=
EXTT6=
EXTT7=
EXTT8=
EXTT9=
EXTT10=
EXTT11=
EXTT12=
EXTT13=
EXTT14=
EXTT15=
PLAYORDER=
